<?xml version="1.0" encoding="UTF-8" standalone="no"?>
<!-- Created with Inkscape (http://www.inkscape.org/) -->

<svg
   id="svg2"
   version="1.1"
   inkscape:version="1.1.1 (3bf5ae0d25, 2021-09-20)"
   width="424.22214"
   height="235.67992"
   xml:space="preserve"
   sodipodi:docname="bvrn.svg"
   xmlns:inkscape="http://www.inkscape.org/namespaces/inkscape"
   xmlns:sodipodi="http://sodipodi.sourceforge.net/DTD/sodipodi-0.dtd"
   xmlns="http://www.w3.org/2000/svg"
   xmlns:svg="http://www.w3.org/2000/svg"
   xmlns:rdf="http://www.w3.org/1999/02/22-rdf-syntax-ns#"
   xmlns:cc="http://creativecommons.org/ns#"
   xmlns:dc="http://purl.org/dc/elements/1.1/"><metadata
     id="metadata8"><rdf:RDF><cc:Work
         rdf:about=""><dc:format>image/svg+xml</dc:format><dc:type
           rdf:resource="http://purl.org/dc/dcmitype/StillImage" /><dc:title /></cc:Work></rdf:RDF></metadata><defs
     id="defs6" /><sodipodi:namedview
     pagecolor="#ffffff"
     bordercolor="#666666"
     borderopacity="1"
     objecttolerance="10"
     gridtolerance="10"
     guidetolerance="10"
     inkscape:pageopacity="0"
     inkscape:pageshadow="2"
     inkscape:window-width="1920"
     inkscape:window-height="999"
     id="namedview4"
     showgrid="false"
     fit-margin-top="0"
     fit-margin-left="0"
     fit-margin-right="0"
     fit-margin-bottom="0"
     inkscape:zoom="1.3430431"
     inkscape:cx="308.62747"
     inkscape:cy="191.72877"
     inkscape:window-x="0"
     inkscape:window-y="0"
     inkscape:window-maximized="1"
     inkscape:current-layer="g10"
     inkscape:pagecheckerboard="0" /><g
     id="g10"
     inkscape:groupmode="layer"
     inkscape:label="ink_ext_XXXXXX"
     transform="matrix(1.25,0,0,-1.25,-38.891625,273.85229)"><path
       inkscape:connector-curvature="0"
       id="path14"
       style="fill:#f0f0f0;fill-opacity:1;fill-rule:evenodd;stroke:none"
       d="m 156.549,205.513 c 0.727,2.126 1.773,4.649 3.576,6.258 1.198,1.069 3.986,2.938 6.19,1.582 1.954,-1.2 2.373,-4.924 1.444,-7.703 1.578,-1.54 3.616,-2.62 5.366,-3.989 0.291,0.563 -0.059,0.977 0.137,1.444 0.17,0.407 0.664,0.35 0.964,0.619 0.465,0.421 0.621,1.268 0.962,1.582 0.665,0.614 1.941,1 2.888,1.239 3.855,0.966 6.371,-2.402 7.566,-5.022 1.124,-2.463 -0.811,-4.525 -1.651,-6.74 1.274,-0.684 2.689,-1.467 4.197,-2.269 1.36,-0.726 3.178,-1.346 3.988,-2.407 1.522,-1.996 -1.684,-4.4 -3.094,-5.021 -1.384,-0.609 -3.44,-0.575 -4.885,-0.069 0.532,-1.279 1.905,-1.612 2.476,-2.888 0.393,-0.875 0.521,-2.098 0.757,-3.164 0.265,-1.2 0.864,-3.12 0.344,-4.196 -0.295,-0.608 -1.003,-1.085 -1.582,-1.376 -0.565,-0.283 -1.524,-0.444 -1.995,-0.963 -0.679,-0.75 -0.24,-1.98 -0.618,-3.369 -0.161,-0.589 -0.721,-0.961 -0.826,-1.582 -0.135,-0.795 0.151,-1.597 0.069,-2.338 -0.169,-1.525 -1.028,-2.456 -1.582,-3.646 0.263,-0.926 0,-1.986 0,-3.095 0,-0.915 0.237,-1.838 0.138,-2.751 -0.105,-0.968 -0.535,-1.85 -0.482,-2.682 0.054,-0.84 1.038,-1.737 0.138,-2.201 0.306,-1.594 0.472,-3.022 0.206,-4.47 -0.052,-0.285 -0.282,-0.585 -0.344,-0.895 -0.045,-0.228 0.054,-0.481 0,-0.688 -0.1,-0.377 -0.415,-0.706 -0.48,-1.1 -0.145,-0.863 0.281,-1.863 0.274,-2.75 -0.003,-0.426 -0.222,-0.815 -0.274,-1.24 -0.102,-0.799 0.132,-1.623 0.136,-2.475 0.009,-1.543 -0.649,-2.935 -0.756,-4.333 -0.109,-1.435 0.475,-2.833 0.826,-4.127 0.197,-0.733 0.31,-1.589 0.549,-2.407 0.23,-0.781 0.6,-1.703 0.55,-2.338 -0.027,-0.351 -0.366,-0.693 -0.411,-1.032 -0.143,-1.029 0.483,-2.268 0.755,-3.095 0.138,-0.42 0.197,-0.922 0.344,-1.307 0.086,-0.222 0.268,-0.397 0.344,-0.619 0.11,-0.318 0.042,-0.718 0.139,-1.1 0.15,-0.603 0.449,-1.126 0.481,-1.651 0.06,-1.031 0.034,-1.821 0,-2.682 0.175,-0.26 0.277,-0.593 0.481,-0.825 -0.224,-0.83 0.305,-1.349 0.481,-1.995 0.306,-1.121 0.507,-2.496 0.894,-3.852 0.383,-1.339 0.63,-2.758 0.825,-3.987 0.061,-0.385 -0.171,-0.987 -0.137,-1.445 0.028,-0.3839 0.514,-1.8831 0.756,-2.269 0.238,-0.3789 0.815,-0.582 1.101,-0.8961 -0.012,-0.3328 0.141,-0.5008 0.275,-0.6867 -0.056,-1.343 0.031,-2.8153 -0.206,-3.9211 -0.068,-0.3141 -0.197,-0.4602 -0.344,-0.686 1.779,-1.5761 3.671,-2.8703 4.677,-5.4339 0.152,-0.3903 0.474,-1.084 0.412,-1.3082 -0.127,-0.4622 -1.442,-0.702 -2.063,-0.7559 -1.687,-0.1461 -3.866,0.066 -4.952,0.8258 -0.941,0.6582 -1.602,2.6652 -2.681,3.025 -0.276,0.0929 -0.516,-0.0707 -0.894,0 -1.222,0.2312 -3.312,1.475 -2.202,3.2332 -0.336,0.6508 -0.651,1.3211 -0.894,2.064 -0.991,1.1079 -1.421,2.586 -1.789,4.1938 -0.387,1.6973 -0.42,3.4201 -0.55,5.2281 -0.063,0.881 -0.471,1.762 -0.55,2.614 -0.057,0.622 0.108,1.128 0,1.65 -0.13,0.634 -0.596,1.038 -0.688,1.582 -0.187,1.122 0.394,2.429 -0.069,3.576 -0.174,0.435 -0.537,0.769 -0.619,1.238 -0.053,0.307 0.045,0.647 0,0.963 -0.038,0.285 -0.204,0.537 -0.275,0.825 -0.396,1.643 -0.568,3.38 -1.1,5.021 -0.185,0.571 -0.528,1.074 -0.688,1.651 -0.168,0.604 -0.296,1.194 -0.481,1.789 -0.36,1.145 -0.904,2.186 -1.307,3.3 -0.349,0.968 -0.429,2.049 -0.687,3.026 -0.303,1.137 -0.928,2.189 -1.307,3.233 -0.265,-0.615 -0.565,-1.374 -0.62,-2.132 -0.257,-3.614 -0.116,-8.114 -0.894,-11.486 0.02,-0.37 0.292,-0.487 0.345,-0.826 -0.334,-2.959 0.364,-5.083 0.136,-7.84 0.01,-0.26 -0.401,-0.102 -0.412,-0.344 0.107,-0.274 0.403,0.178 0.412,0 -0.168,-2.336 0.221,-4.09 0.207,-6.463 -0.007,-1.059 -0.219,-2.074 -0.137,-3.028 0.08,-0.927 0.295,-1.772 0.206,-2.681 -0.039,-0.409 -0.202,-0.777 -0.206,-1.1692 -0.007,-0.7179 0.442,-1.4316 0.412,-2.1339 -0.018,-0.4348 -0.37,-0.8137 -0.412,-1.2368 -0.096,-0.955 0.328,-1.9062 -0.139,-2.6832 0.119,-0.5121 0.56,-1.2398 0.345,-1.925 -0.219,-0.6988 -3.465,-1.7039 -4.677,-1.4449 -0.461,0.0988 -0.597,0.5078 -0.962,0.5512 -1.016,0.1199 -1.938,-1.0012 -2.89,-1.5141 -1.089,-0.5871 -2.061,-1.0121 -3.37,-1.1 -2.427,-0.1633 -4.96,0.0301 -6.74,0.7571 0.002,0.7269 0.395,0.9589 0.275,1.6507 1.623,0.77 3.168,1.42 4.746,2.2012 0.619,0.3059 1.353,0.534 1.789,0.893 0.405,0.334 0.616,0.9668 0.962,1.4461 0.725,1 1.246,1.8308 2.132,2.6808 -0.088,0.416 -0.558,0.5559 -0.757,0.8942 -1.095,1.8668 -0.977,5.3038 -0.894,8.0478 0.059,1.929 0.227,3.772 0.482,5.913 0.073,0.605 0.345,1.214 0.345,1.72 -0.002,0.713 -0.292,1.618 -0.551,2.269 -0.122,0.305 -0.437,0.564 -0.55,0.895 -0.375,1.082 -0.388,2.939 -0.138,3.99 0.126,0.529 0.645,1.011 0.688,1.58 0.05,0.666 -0.414,1.575 -0.482,2.408 -0.063,0.778 0.099,1.578 0.069,2.338 -0.056,1.412 -0.541,2.844 -0.551,4.333 -0.011,1.911 0.041,4.067 0.139,6.19 0.085,1.856 0.027,4.325 -0.07,6.19 -0.035,0.693 -0.315,1.353 -0.342,1.994 -0.051,1.124 0.323,2.721 0.549,3.852 0.218,1.089 1.005,2.594 0.756,3.576 -0.095,0.375 -0.806,0.882 -1.169,1.376 -0.574,0.783 -0.938,1.652 -1.444,2.545 -0.288,0.508 -1.269,1.086 -1.376,1.65 -0.136,0.716 0.54,1.593 0.757,2.202 0.201,0.565 0.271,1.061 0.481,1.581 0.181,0.45 0.46,0.824 0.689,1.308 1.059,2.243 1.364,5.291 2.2,7.84 0.165,0.502 0.463,0.914 0.619,1.375 0.506,1.506 0.407,3.208 0.895,4.539 -1.271,0.051 -1.895,-2.223 -3.165,-2.269 -0.957,-0.035 -1.397,1.032 -1.994,1.65 -0.951,-0.312 -2.083,-0.368 -3.301,-0.068 -1.372,0.337 -2.56,0.654 -2.821,1.856 -0.09,0.417 0.037,1.37 0.138,1.72 0.61,2.126 1.838,3.915 3.026,5.434 1.186,1.513 2.911,2.533 4.196,4.195 0.411,0.532 0.81,1.181 1.237,1.789 0.412,0.583 0.925,1.228 1.17,1.857 0.609,1.564 0.644,2.993 2.131,3.644 -10.318,4.642 -21.291,8.922 -31.911,13.412 -2.729,1.155 -5.831,1.758 -6.191,5.226 -0.276,2.677 0.616,4.643 3.37,4.403 1.403,-0.123 2.883,-0.992 4.058,-1.514 8.822,-3.91 18.398,-8.214 26.961,-12.035 m -26.822,10.729 c -1.318,0.576 -2.651,1.275 -3.99,1.513 -1.88,0.333 -2.61,-1.331 -2.133,-3.301 0.637,-2.622 3.722,-3.281 6.053,-4.265 9.086,-3.834 19.286,-8.226 28.061,-11.829 -1.058,1.2 -1.821,3.594 -1.306,6.052 -8.501,3.806 -17.945,8.01 -26.685,11.83 m 35.145,-15.612 c -1.177,-1.645 -2.816,-2.824 -5.366,-3.095 1.098,-0.179 1.872,-1.221 3.026,-1.239 0.882,-0.013 1.901,0.778 2.822,0.069 0.608,0.789 0.061,2.735 0.342,3.852 -0.236,0.176 -0.549,0.275 -0.824,0.413 m 1.65,-3.44 c 0.595,0.289 1.226,-0.005 1.375,-0.55 0.191,0.245 0.641,0.233 0.963,0.344 l 0,1.376 c -0.64,0.46 -1.48,0.72 -2.27,1.032 -0.052,-0.703 -0.09,-1.422 -0.068,-2.202 m 3.577,-0.137 c 0.547,0.093 0.782,-0.353 1.169,-0.207 0.011,0.356 -0.042,0.777 0.068,1.033 -0.406,0.166 -0.796,0.348 -1.307,0.412 -0.053,-0.489 0.104,-0.767 0.07,-1.238 m -5.572,-3.851 c -0.153,-0.773 0.346,-0.894 0.55,-1.307 0.513,0.288 0.823,0.782 1.513,0.893 -0.081,1.374 -1.402,0.995 -2.063,0.414 m 16.507,-2.958 c 0.391,-0.205 0.854,-0.338 1.169,-0.619 0.807,0.5 1.545,1.069 2.2,1.72 -1.143,0.978 -3.09,0.315 -3.369,-1.101 m -13.962,1.169 c -0.418,-0.316 -0.576,-0.89 -0.963,-1.238 -1.438,0.061 -2.38,-0.772 -3.713,-0.757 -0.656,-0.421 -1.131,-1.024 -1.515,-1.719 0.9,-0.261 1.179,0.793 1.858,0.895 0.32,0.046 0.644,-0.176 0.963,-0.139 0.385,0.047 0.673,0.439 1.1,0.551 0.758,0.198 1.511,0.066 2.476,0.138 0.113,0.419 0.312,1.767 -0.206,2.269 m 17.744,-0.481 c -0.704,-0.511 -1.467,-0.962 -1.994,-1.651 0.714,-0.08 1.366,-0.878 2.133,-0.826 0.711,0.05 1.333,0.836 1.376,1.789 -0.481,0.253 -0.935,0.534 -1.515,0.688 m -1.306,-3.164 c -0.143,-0.268 -0.555,-0.268 -0.618,-0.619 1.397,-0.483 3.284,-2.012 5.364,-1.169 0.743,0.301 1.832,1.25 1.787,1.856 -0.059,0.807 -2.304,1.448 -2.888,1.858 -0.353,-1.47 -1.88,-2.721 -3.645,-1.926 m -3.027,0.687 c 0.645,-0.34 1.253,-0.717 1.926,-1.031 0.231,0.206 0.468,0.404 0.688,0.621 -0.791,0.422 -1.564,0.864 -2.407,1.236 -0.118,-0.226 -0.216,-0.471 -0.207,-0.826 m 2.958,-3.232 c -0.042,-0.003 -0.081,-0.01 -0.068,-0.068 0.57,0.071 -0.448,0.679 -0.345,0.481 0.103,-0.172 0.242,-0.31 0.413,-0.413" /><path
       inkscape:connector-curvature="0"
       id="path16"
       style="fill:#f0f0f0;fill-opacity:1;fill-rule:evenodd;stroke:none"
       d="m 283.623,189.668 c -0.162,0.054 0.158,0.11 0.06,0.295 -0.511,0.142 -1.145,0.159 -1.719,0.236 -0.32,0.311 -1.251,1.371 -1.485,0.353 0.175,-0.12 0.606,0.013 0.654,-0.236 -0.498,-0.607 -1.145,0.61 -1.602,0.59 -0.239,0.001 -0.165,-0.308 -0.177,-0.529 0.159,-0.182 0.332,0.017 0.533,-0.12 0.088,-0.128 -0.225,-0.363 -0.296,-0.53 -0.191,0.04 -0.04,0.268 -0.119,0.295 -0.928,-0.1 -1.341,-0.709 -2.194,-0.885 -0.159,0.478 -0.599,0.969 -1.008,1.003 -0.15,0.548 0.305,1.134 0.177,1.592 -0.215,0.772 -1.561,0.497 -2.429,0.707 -0.771,0.772 -3.029,2.515 -4.45,2.712 -0.737,0.103 -1.199,-0.121 -1.778,-0.294 0.226,0.462 1.046,0.336 1.541,0.53 -0.206,0.386 -0.978,0.26 -1.363,0.177 -0.833,-0.18 -1.592,-0.762 -1.78,-1.533 -0.281,0.183 -0.406,-0.186 -0.711,-0.295 l 0,-0.766 c -10e-4,-0.095 -0.336,0.095 -0.416,-0.059 -0.051,-0.228 0.145,-0.21 0.178,-0.354 -0.629,0.016 -1.17,-0.055 -1.6,-0.236 -0.013,-0.169 -0.008,-0.321 0.176,-0.295 -2.421,-1.472 -3.069,-4.854 -3.259,-8.549 -0.079,-1.509 0.079,-2.871 -0.12,-4.303 -0.062,-0.438 -0.287,-0.835 -0.356,-1.239 -0.287,-1.687 0.136,-3.435 0.772,-4.421 0.179,-0.279 0.504,-0.532 0.533,-0.884 -0.331,-0.405 -1.148,-0.161 -1.541,-0.237 0.224,-0.559 1.175,-0.553 1.778,-0.412 0.292,-0.231 0.235,-0.51 0.059,-0.767 -0.169,-0.247 -0.626,-0.234 -0.652,-0.53 0.441,-0.546 0.857,0.592 1.067,0.53 0.425,-0.125 0.169,-1.23 -0.415,-1.179 -0.086,-0.271 0.32,-0.205 0.12,-0.412 -0.132,-0.185 -0.728,0.093 -0.772,-0.178 0.111,-0.42 0.948,-0.118 1.127,-0.471 0.548,0.26 0.985,0.632 1.483,0.944 0.02,-0.299 -0.28,-0.519 -0.119,-0.767 0.308,-0.184 0.331,0.362 0.533,0.472 -0.042,-2.055 0.861,-3.566 1.72,-5.246 0.725,-1.424 1.159,-2.825 1.78,-4.069 0.65,-1.304 1.487,-2.465 2.134,-3.715 0.688,-1.33 1.132,-2.821 1.601,-4.245 0.169,-0.514 0.018,-1.55 0.06,-2.18 0.065,-0.971 0.508,-1.782 0.712,-2.773 0.089,-0.436 0.043,-0.881 0.355,-1.179 -0.148,-1.517 -0.108,-2.793 0.118,-4.304 0.046,-0.301 0.278,-0.556 0.297,-0.824 0.04,-0.545 -0.337,-0.92 -0.355,-1.416 0.167,-0.225 0.477,-0.047 0.769,-0.059 0.567,-2.327 1.463,-4.324 2.018,-6.662 -0.342,-0.566 -0.528,-1.283 -0.89,-1.828 -0.304,-3.03 -1.217,-6.099 -1.008,-9.198 0.024,-0.359 0.186,-0.708 0.177,-1.061 -0.006,-0.298 -0.184,-0.589 -0.235,-0.884 -0.302,-1.657 -0.402,-3.393 -0.654,-5.071 1.376,-0.009 2.63,-0.808 3.914,-0.353 l 0,0.53 c 1.027,0.356 2.307,0.458 3.321,0.826 0.252,-0.073 0.16,0.196 0.298,0.235 0.327,-0.03 0.558,0.035 0.83,0.06 0.027,0.35 -0.065,0.525 0,0.766 0.512,0.433 1.319,0.575 1.956,0.885 0.106,-1.109 -0.189,-2.329 -0.89,-2.83 -1.233,0.302 -1.621,-0.439 -2.254,-0.884 -0.443,-0.312 -0.927,-0.535 -1.364,-0.885 -1.144,-0.918 -2.365,-2.15 -3.616,-2.948 -0.268,-0.547 -0.819,-0.815 -1.186,-1.296 -0.536,-0.701 -0.932,-1.601 -1.601,-2.181 -0.498,-0.434 -1.116,-0.893 -1.423,-1.594 -0.154,-0.179 0.126,-0.308 0.177,-0.471 -0.21,-0.186 -0.38,-0.308 -0.593,-0.589 -0.476,-0.628 -2.312,-1.134 -1.601,-2.417 -0.734,-0.509 -1.887,-0.602 -1.778,-1.9458 -0.509,-0.3172 -0.832,-0.9672 -1.307,-1.416 -0.144,-0.1352 -0.405,-0.1992 -0.533,-0.3524 -0.106,-0.1258 -0.161,-0.4269 -0.297,-0.65 -0.607,-1.0047 -1.654,-1.8379 -1.424,-3.4769 0.03,-0.1989 0.166,-0.2828 0.239,-0.4719 0.459,-1.193 0.649,-2.6719 1.245,-3.8918 0.483,-0.2051 1.059,-0.3211 1.719,-0.3543 0.444,0.7 0.731,1.5551 1.069,2.3582 1.029,-0.6019 2.08,-1.216 3.084,-2.1812 0.656,-0.6309 1.162,-1.725 2.372,-1.8868 0.622,-0.0832 1.461,-0.0152 2.135,0 1.554,0.0348 5.299,-0.3992 5.575,0.8848 0.17,0.8063 -0.997,1.5531 -1.603,1.9461 -1.548,1.0059 -3.816,1.4699 -5.219,2.5941 -0.158,0.5957 -0.854,1.1149 -1.067,1.768 -0.077,0.2359 -0.143,0.9027 -0.059,1.1801 0.154,0.5008 1.252,1.2469 1.601,1.7098 0.328,0.4351 0.395,0.882 0.652,1.2968 0.243,-0.0058 0.488,-0.0117 0.654,0.0602 0.264,0.7941 0.844,1.282 1.718,1.472 0.297,0.726 0.874,1.095 1.542,1.593 0.375,0.277 0.677,0.655 1.008,0.884 0.15,0.102 0.382,0.12 0.533,0.235 0.477,0.366 0.797,0.889 1.306,1.238 1.433,0.99 2.851,2.176 4.329,3.125 0.719,1.232 2.067,1.836 3.201,2.653 -0.498,-1.106 -1.08,-2.21 -1.66,-3.419 -0.571,-1.192 -0.773,-2.494 -1.126,-3.891 -0.145,-0.58 -0.448,-1.156 -0.534,-1.768 -0.102,-0.725 -0.099,-1.3958 -0.355,-2.0048 -0.123,-0.2953 -0.369,-0.45 -0.535,-0.7082 -0.594,-0.9309 -1.334,-2.602 -1.067,-4.3039 0.064,-0.395 0.307,-0.8762 0.061,-1.4153 -0.617,-0.4797 -1.16,-1.0968 -1.602,-1.8269 -0.71,-1.1731 -1.337,-2.818 -1.245,-4.0688 0.097,-1.3242 0.651,-2.5422 0.948,-3.95 0.068,-0.3199 -0.054,-0.6511 0.237,-0.884 0.68,-0.032 1.071,-0.35 1.838,-0.2953 0.598,0.3492 0.589,1.3012 0.95,1.8864 1.325,-0.802 1.66,-2.2653 2.727,-3.3602 1.49,-1.5262 4.718,-1.7078 7.413,-1.593 1.235,0.0559 4.298,-0.189 3.677,1.534 -0.113,0.316 -0.755,0.9422 -1.127,1.2391 -0.852,0.6801 -1.876,1.3871 -2.608,2.0039 -0.308,0.257 -0.512,0.6582 -0.83,1.0031 -0.867,0.9301 -2.188,1.8711 -2.434,3.477 -0.152,0.1621 -0.251,0.3789 -0.414,0.532 0.086,0.6668 0.156,1.7949 -0.118,2.298 0.022,0.3469 0.337,0.3789 0.416,0.7079 0.084,0.355 -0.114,0.7699 -0.062,1.1199 0.084,0.5312 0.538,0.7222 0.654,1.1191 -0.12,1.002 0.131,1.691 0.592,2.4789 0.169,0.286 0.475,0.4992 0.594,0.8242 0.102,0.2797 0.07,0.609 0.178,0.8848 0.207,0.5332 0.683,1.0152 0.948,1.5922 0.263,0.568 0.548,1.1449 0.83,1.6499 1.359,2.428 2.858,4.792 3.975,7.134 0.72,2.828 3.677,4.778 3.734,8.253 0.036,2.256 -0.779,4.187 -1.424,6.251 0.45,0.457 1.205,0.611 1.603,1.12 -1.711,3.407 -4.618,5.626 -6.582,8.784 -0.316,2.056 -0.827,3.821 -1.602,5.483 -0.099,0.215 -0.268,0.431 -0.355,0.649 -0.086,0.211 -0.021,0.503 -0.119,0.707 -0.07,0.143 -0.237,0.209 -0.296,0.354 -0.22,0.529 -0.193,1.121 -0.297,2.005 -0.038,0.323 -0.22,0.584 -0.298,0.884 -0.222,0.861 -0.238,1.764 -0.295,2.83 0.316,0.343 0.774,0.366 0.829,0.708 0.105,0.627 -1.23,1.863 -1.481,2.417 2.06,0.386 4.378,-0.007 5.93,-0.06 0.501,-2.25 0.882,-4.8 1.126,-7.251 0.05,-0.5 0.283,-1.041 0.534,-1.533 0.228,-0.445 0.467,-1.004 0.712,-1.297 0.806,-0.967 3.098,-1.938 4.744,-1.828 2.739,0.182 4.956,2.594 4.745,5.424 -0.32,4.267 -1.58,8.425 -1.365,12.913 0.124,2.559 0.667,5.127 1.837,6.897 0.284,0.113 0.525,0.267 0.832,0.353 0.554,-0.172 1.476,-0.775 2.016,-0.234 -0.353,1.718 -1.778,2.994 -3.084,4.008 -1.648,1.283 -3.155,2.648 -5.692,3.007 -0.731,-0.761 0.37,-1.349 0.473,-1.946 0.124,-0.701 -0.493,-1.428 -0.77,-2.063 -0.863,-1.973 -1.479,-4.245 -1.601,-6.721 -0.205,-0.026 -0.333,0.023 -0.475,0.059 -0.667,2.48 -1.026,5.267 -1.602,7.841 0.117,0.262 0.384,0.615 0.062,0.825 0.238,0.037 0.236,0.315 0.295,0.531 0.376,-0.039 0.541,0.13 0.771,0.236 -0.025,0.898 -1.349,0.507 -1.779,1.002 0.021,0.293 0.416,0.216 0.356,0.59 -0.44,0.328 -0.534,0.386 -0.771,0.825 0.564,0.785 -0.35,1.856 -0.95,2.24 0.052,0.342 0.541,0.25 0.654,0.531 -0.061,0.668 -0.585,0.873 -0.949,1.238 -0.06,1.023 -0.478,1.688 -0.95,2.299 0.28,0.712 -0.278,1.289 -0.415,1.946 -0.39,1.881 -0.551,3.89 -1.067,5.72 -0.13,-0.01 -0.128,-0.149 -0.119,-0.296 0.101,0.028 -0.404,0.404 -0.357,0.296 -0.145,0.334 0.132,0.952 -0.533,1.178 0.121,0.176 0.36,0.233 0.476,0.413 0.052,0.466 -0.086,0.741 -0.179,1.061 -0.137,0.157 -0.454,-0.04 -0.533,0.059 -0.026,0.552 -0.251,1.196 -0.18,1.651 0.354,0.113 0.261,-0.215 0.477,-0.237 0.329,0.054 0.471,0.832 0.236,1.062 -0.314,-0.138 -0.32,-0.586 -0.948,-0.412 -0.169,0.133 0.201,0.228 0.119,0.471 0.117,2.241 -0.943,3.308 -2.195,4.186 -0.098,0.101 -0.098,0.296 -0.238,0.354 -0.867,-0.112 -1.642,0.306 -2.491,0.236 -1.018,-0.084 -1.587,-0.716 -2.372,-1.003 -0.138,-0.629 -0.865,-0.67 -1.185,-1.12 0.114,-0.279 0.454,-0.335 0.592,-0.588 -0.794,-0.87 -2.129,-1.69 -3.617,-1.77 m 6.524,4.127 c 0.713,0.073 1.808,-0.048 1.837,-0.589 -1.12,0.442 -2.796,-0.069 -3.557,-0.472 0.011,0.477 0.938,0.982 1.72,1.061 m 3.203,-1.591 c -0.208,0.239 -0.36,0.669 -0.654,0.648 0.033,0.105 0.032,0.245 0.119,0.294 0.134,-0.319 0.646,-0.575 0.535,-0.942 m -6.05,-0.413 c -0.162,0.136 0.103,0.336 -0.06,0.471 0.241,0.076 0.326,0.306 0.593,0.354 0.193,-0.084 0.267,-0.286 0.238,-0.59 -0.398,-0.261 -0.481,-0.11 -0.771,-0.235 m 7.413,-1.828 c -0.174,0.791 -0.805,1.441 -0.771,2.241 0.309,-0.657 0.967,-1.278 0.771,-2.241 m -15.775,-4.422 c 0.031,0.062 0.113,0.261 0.119,0.295 0.174,0.89 -0.505,0.955 -0.889,1.474 -0.262,0.352 -0.168,0.811 -0.475,1.12 1.191,-0.254 2.72,-0.166 3.973,-0.413 0.383,0.571 2.023,0.18 2.136,0.826 2.117,0.036 3.404,0.898 4.507,1.945 0.186,0.03 0.156,-0.202 0.295,-0.058 1.286,1.231 3.918,0.657 4.034,-1.238 0.055,-0.122 0.305,-0.051 0.296,-0.237 -0.045,-0.32 0.094,-0.456 0.059,-0.766 -0.096,-0.2 -0.375,-0.218 -0.416,-0.472 0.217,-0.295 0.32,-0.704 0.297,-1.238 0.221,0.042 0.255,-0.101 0.476,-0.059 -0.044,-0.279 0.065,-0.405 0.058,-0.648 -0.006,-0.113 -0.231,0.102 -0.236,-0.118 0.326,-1.222 0.357,-2.693 0.593,-4.127 0.069,-0.068 0.21,-0.067 0.355,-0.06 l 0,-0.529 c -0.182,-0.076 -0.495,-0.02 -0.534,-0.236 0.256,-2.358 1.122,-5.039 0.77,-7.252 -0.085,-0.159 -0.315,0.215 -0.414,0.059 -0.269,-0.32 0.055,-0.721 0.12,-1.062 -0.173,-0.32 -0.502,-0.485 -0.654,-0.826 -1.43,-0.128 -0.739,-1.822 -1.186,-2.83 -0.23,-0.514 -1.079,-0.825 -1.541,-1.178 -0.173,-0.133 -0.23,-0.419 -0.534,-0.413 -0.729,0.356 -1.194,0.976 -1.958,1.297 0.054,0.898 -1.253,0.444 -1.245,1.297 -0.393,0.105 -0.724,0.437 -1.128,0.354 -0.763,0.79 -1.784,1.216 -2.547,2.004 -0.276,0.283 -0.357,0.696 -0.595,1.003 -0.258,0.332 -0.656,0.406 -0.948,0.648 -0.038,0.032 -0.093,0.219 -0.12,0.236 -0.285,0.187 -0.78,0.22 -1.066,0.59 0.47,-0.015 0.702,0.205 1.066,0.294 0.103,0.306 0.696,0.705 0.773,1.18 0.041,0.263 0.13,0.841 -0.357,0.825 0.078,-0.892 -0.138,-1.463 -0.711,-1.474 -0.27,-0.004 -0.376,0.264 -0.654,0.355 -0.332,0.107 -0.638,0.012 -0.888,0.059 0.042,1.401 -1.436,1.594 -2.195,2.004 0.079,-0.029 0.003,0.269 -0.058,0.294 -0.015,-0.105 0.058,-0.295 -0.12,-0.235 -0.167,0.641 0.052,1.415 0.12,1.591 0.075,0.901 -0.248,2.399 -0.061,3.419 0.103,0.552 0.619,0.779 0.652,1.062 -0.011,-0.064 -0.096,-0.142 -0.117,-0.059 0.21,0.192 0.261,0.278 0.473,0.531 -0.046,-0.014 -0.068,-0.05 -0.059,-0.118 -0.079,0.47 0.409,0.631 0.534,0.884 m 17.08,-1.651 c 0.115,0.024 0.046,0.229 0.237,0.178 0.077,-0.183 -0.169,-0.334 -0.237,-0.178 m -35.582,-7.605 c -0.014,-0.126 0.072,-0.418 -0.059,-0.354 l 0,1.887 c 0.155,0.218 0.114,0.632 0.297,0.825 0.017,-0.891 -0.156,-1.636 -0.238,-2.358 m 0.653,-1.71 c -0.052,-0.262 -0.491,0.788 -0.178,0.118 -0.34,0.725 -0.007,1.527 -0.059,2.417 -0.111,-0.605 0.298,-2.217 0.237,-2.535 m 23.363,-3.42 c 0.351,-0.245 0.695,-0.526 1.068,-0.765 0.336,-0.217 0.774,-0.316 1.069,-0.531 0.213,-0.158 0.285,-0.449 0.474,-0.648 0.758,-0.81 1.952,-1.191 2.668,-2.065 -0.736,-0.603 -1.505,-1.175 -2.372,-1.65 -0.676,2.215 -1.766,4.021 -3.084,5.6 0.081,-0.002 0.13,0.029 0.177,0.059 m 12.337,-8.254 c 0.028,0.187 -0.108,0.209 -0.06,0.413 0.198,0.073 0.145,-0.398 0.06,-0.413 m -0.119,0.354 c -0.298,0.413 -0.812,0.213 -1.245,0.354 -0.516,0.167 -1.312,1.048 -1.425,1.532 0.784,0.402 1.454,0.914 2.373,1.18 0.144,-0.941 0.461,-2.016 0.297,-3.066 m 4.805,-0.294 c -0.316,-0.011 -0.305,-0.039 -0.596,0 0.353,0.81 -0.043,1.911 -0.295,2.652 0.118,0.118 0.173,0.3 0.356,0.354 0.207,-0.972 0.415,-1.945 0.535,-3.006 m -8.364,1.355 c 0.014,-0.084 0.098,-0.099 0.118,-0.177 0.43,0.139 0.821,-0.273 0.951,-0.766 0.849,-0.338 1.693,-0.69 2.431,-1.356 0.13,-0.154 0.396,0.045 0.473,-0.058 0.211,-2.328 0.818,-4.572 0.891,-6.84 -0.915,-0.169 -1.061,-1.508 -0.712,-2.417 -0.575,0.06 -0.765,-0.262 -1.126,-0.413 -1.676,0.363 -3.545,0.834 -5.159,1.061 -0.784,2.191 -1.788,4.16 -2.433,6.486 1.523,1.492 2.985,3.046 4.566,4.48 m 9.013,-4.48 c -0.284,-0.146 -0.532,-0.16 -0.888,-0.119 -0.222,0.898 -0.174,2.067 -0.712,2.654 0.284,0.17 0.679,0.229 1.008,0.353 0.263,-0.899 0.433,-1.888 0.592,-2.888 m 0.238,-1.18 c -0.466,-0.036 -0.927,-0.156 -1.303,-0.117 -0.079,0.177 -0.193,0.32 -0.18,0.59 0.381,0.153 0.776,0.291 1.308,0.294 0.116,-0.197 0.123,-0.505 0.175,-0.767 m 1.365,-3.596 c -0.301,0.565 -0.399,1.333 -0.535,2.063 0.137,0.061 0.193,0.203 0.415,0.177 -0.109,-0.82 0.364,-1.679 0.12,-2.24 m -0.831,0.235 c -0.124,0.155 -0.25,0.032 -0.355,0.118 -0.092,0.362 -0.145,0.76 -0.237,1.121 0.148,0.05 0.232,0.161 0.416,0.177 0.018,-0.473 0.319,-0.977 0.176,-1.416 m -0.887,-0.057 c -0.558,-0.036 -0.8,1.216 -0.18,1.296 0.05,-0.442 0.216,-0.768 0.18,-1.296 m 1.954,-1.947 c -0.03,0.41 -0.244,0.967 -0.236,1.592 l 0.177,0 c -0.007,-0.518 0.19,-1.149 0.059,-1.592 m 1.307,-9.138 -1.307,0 c 0.034,0.269 -0.105,0.367 -0.059,0.648 0.303,0.046 0.136,-0.377 0.415,-0.353 0.726,0.506 0.074,1.794 0,2.653 0.207,-0.048 0.23,0.087 0.416,0.059 0.16,-1.021 0.406,-1.955 0.535,-3.007 m 0.472,-0.235 c 0.033,-0.908 0.69,-2.482 -0.354,-2.595 -1.066,-0.116 -1.185,1.261 -1.306,2.358 0.54,0.167 1.355,0.134 1.66,0.237" /><path
       inkscape:connector-curvature="0"
       id="path18"
       style="fill:#f0f0f0;fill-opacity:1;fill-rule:evenodd;stroke:none"
       d="m 81.3184,195.72 c 0.3851,1.312 0.8007,2.466 1.316,3.551 0.2551,0.534 0.5094,1.172 1.0883,1.354 0.4226,-0.24 0.1457,-1.011 0.0566,-1.411 0.7473,-1.927 2.4934,-3.175 4.35,-4.115 4.1672,-2.11 9.0277,-3.979 13.0487,-5.693 -0.327,0.503 -0.135,0.9 0.115,1.353 0.711,-0.295 0.706,-1.296 1.431,-1.578 0.141,0.254 0.255,0.537 0.342,0.845 0.015,0.19 -0.341,0.164 -0.171,0.338 0.147,0.213 0.444,-0.194 0.572,0 -0.089,0.388 -0.255,0.989 0.229,1.071 0.417,-0.172 0.515,-0.658 0.86,-0.902 0.761,0.647 2.016,0.129 2.632,-0.338 0.702,-0.154 1.275,-0.434 1.66,-0.902 -0.012,-0.986 -0.148,-1.848 -0.173,-2.818 1.476,-0.838 3.142,-1.236 4.579,-2.086 0.256,-0.151 0.427,-0.378 0.686,-0.507 1.026,-0.514 2.249,-0.664 3.206,-1.354 0.666,0.199 1.242,-0.101 1.717,0.113 0.032,0.451 0.272,0.574 0.228,0.902 -0.052,0.383 -0.493,0.514 -0.401,1.015 0.183,0.971 2.598,0.942 2.576,2.198 -0.033,0.194 -0.257,0.198 -0.286,0.395 -0.157,0.94 0.51,2.242 1.087,2.424 0.009,0.082 0.028,0.3 0.172,0.394 0.197,0.013 -0.008,-0.208 0.228,-0.056 0.424,0.23 0.98,0.807 1.431,0.958 0.307,0.103 0.778,0.138 1.145,0.17 1.258,0.106 2.875,-0.009 3.777,-0.395 0.246,0.125 0.621,0.142 0.974,0.057 0.81,-0.199 2.028,-0.857 2.748,-1.41 1.938,-1.491 3.191,-3.89 2.747,-7.385 0.182,-0.27 0.546,-0.362 0.628,-0.732 0.951,-0.379 1.857,-0.803 2.69,-1.297 -0.179,-0.758 0.708,-0.995 0.858,-1.747 -0.217,-0.377 -0.034,-0.643 -0.113,-1.072 -0.222,0.139 -0.43,-0.226 -0.573,0.057 -0.012,-0.778 -0.483,-1.286 -0.688,-1.974 -0.218,-0.74 0.057,-1.848 -0.284,-2.424 0.33,-0.557 1.147,-0.635 1.545,-1.127 -0.455,-0.034 -0.562,0.274 -0.915,0.338 -0.135,-0.36 -0.439,-0.012 -0.746,-0.112 0.265,-0.459 1.154,-0.587 1.088,-1.184 -0.392,0.027 -0.537,0.299 -0.859,0.394 0.025,-0.125 0.132,-0.305 -0.057,-0.338 -0.137,-0.004 -0.45,0.294 -0.458,0.056 -0.011,-0.504 0.927,-0.765 0.686,-1.353 -0.357,0.061 -0.518,0.316 -0.799,0.451 0.129,-0.143 0.022,-0.397 -0.058,-0.506 -0.721,0.441 -1.367,0.15 -1.945,0 -0.504,0.387 -0.997,0.787 -1.318,1.352 -0.132,-0.109 0.111,-0.363 -0.056,-0.507 -0.262,0.04 -0.582,-0.064 -0.686,0 -0.136,0.262 -0.24,0.555 -0.23,0.959 -0.155,-0.074 -0.204,-0.252 -0.457,-0.226 -0.185,0.082 -0.02,0.507 -0.287,0.507 -0.259,-0.026 -0.339,-0.23 -0.63,-0.225 -0.024,0.238 -0.295,0.234 -0.4,0.394 0.018,0.132 0.25,0.054 0.286,0.169 -0.47,0.025 -0.057,0.3 0.056,0.395 -0.246,0.163 -0.113,0.367 -0.4,0.507 0.357,0.439 0.974,0.619 1.488,0.902 -1.31,0.05 -2.207,0.785 -2.061,2.085 0.366,0.203 0.754,-0.03 1.031,0 0.119,0.016 0.017,0.248 0.114,0.283 1.57,0.448 2.34,1.68 2.575,3.438 -0.2,0.047 -0.323,0.17 -0.515,0.226 -1.088,-1.398 -1.776,-3.486 -4.12,-3.664 -0.405,-0.031 -0.821,0.172 -1.201,0.169 -0.063,-0.001 -0.249,-0.1 -0.344,-0.113 -0.906,-0.125 -1.387,-0.937 -1.316,-1.917 0.064,-0.874 0.82,-1.349 1.488,-1.577 0.221,-1.32 0.502,-2.147 1.03,-2.989 0.516,-0.821 1.356,-1.416 1.716,-2.311 0.165,-0.406 0.165,-1.066 0.344,-1.691 0.195,-0.678 0.517,-1.315 0.572,-1.86 0.182,-1.781 -1.216,-2.764 -1.774,-4.003 -0.371,-0.82 -0.529,-1.914 -1.088,-2.818 -0.349,-0.569 -0.823,-1.105 -1.202,-1.692 -0.373,-0.579 -0.844,-1.239 -1.086,-1.803 -0.315,-0.738 -0.284,-1.49 -0.687,-2.03 -0.522,-0.696 -1.391,-0.884 -1.487,-1.747 -0.141,-1.243 0.269,-2.203 0,-3.213 -0.553,-2.074 -1.014,-4.142 -1.203,-6.257 0.047,-0.216 -0.275,-0.067 -0.229,-0.283 0.559,-1.736 0.809,-3.673 1.03,-5.637 0.675,-6.009 0.872,-12.579 1.145,-18.997 -0.316,-0.121 -0.326,-0.543 -0.515,-0.79 -1.138,-0.25 -2.421,-0.358 -3.834,-0.338 -0.186,0.005 -0.04,0.336 -0.287,0.282 -1.848,-0.308 -4.087,-0.113 -6.124,-0.113 0.052,-0.776 -0.118,-1.769 0.114,-2.368 3.18,-1.001 5.891,-2.437 7.67,-4.734 0.131,-0.168 0.156,-0.398 0.285,-0.564 0.682,-0.871 1.557,-1.647 2.232,-2.593 0.68,-0.95 1.235,-2.002 1.89,-2.988 0.596,-0.897 1.299,-1.892 2.06,-2.8182 0.765,-0.9308 1.404,-2.0859 2.174,-2.7058 0.175,-0.1399 0.427,-0.1758 0.573,-0.3379 0.424,-0.4711 0.825,-1.7992 0.63,-2.7051 -0.056,-0.259 -0.311,-0.6359 -0.459,-0.959 -0.15,-0.3281 -0.338,-0.664 -0.457,-1.0148 -0.374,-1.109 -0.39,-2.3723 -0.745,-3.4391 -0.764,-0.1152 -0.967,0.325 -1.029,0.902 -0.79,-1.0289 -0.544,-2.5571 -1.716,-3.2692 -1.027,-0.6238 -2.917,-0.9019 -4.523,-0.9019 -1.043,0 -2.154,0.0441 -3.033,0.3941 -0.835,1.1051 0.664,2.3578 1.203,2.9309 0.603,0.6449 1.147,1.5992 1.774,2.4262 0.671,0.8839 1.176,1.7769 1.43,2.8168 0.693,2.8468 -1.322,4.1832 -2.861,5.2992 -2.199,1.5957 -4.644,2.9128 -6.925,4.3968 -2.239,1.457 -4.589,3.046 -6.581,4.736 -0.719,0.608 -1.484,1.184 -2.004,1.804 -0.66,0.785 -0.954,2.88 -1.031,4.002 -0.063,0.926 -0.036,1.717 -0.057,2.649 -0.595,0.841 -2.129,0.758 -2.975,1.353 -0.065,0.421 0.216,0.988 0.171,1.578 -1.821,-0.159 -2.9335,0.38 -4.5206,0.451 -0.1918,-0.638 -0.5371,-1.126 -0.573,-1.916 2.08,-1.842 4.1076,-3.797 5.3806,-6.483 0.26,-0.551 0.618,-1.067 0.916,-1.579 0.326,-0.564 0.504,-1.174 0.742,-1.803 0.459,-1.204 0.966,-2.381 1.49,-3.551 0.507,-1.138 1.001,-2.4 1.659,-3.3831 0.322,-0.4797 0.767,-0.911 1.144,-1.3528 0.404,-0.4699 0.707,-1 1.088,-1.4652 0.939,-1.1481 2.377,-1.7289 2.232,-3.7777 -0.139,-1.952 -1.516,-3.3321 -1.602,-5.468 -0.273,-0.125 -0.676,-0.1242 -1.089,-0.1121 0.016,1.2359 -0.23,2.5519 -0.514,3.664 -1.238,-0.7679 -2.599,-1.6652 -3.605,-2.707 -0.363,-0.373 -0.64,-0.8449 -1.031,-1.0691 -0.388,-0.2258 -1.209,-0.4598 -1.946,-0.6211 -2.2346,-0.486 -5.9299,-0.6778 -6.8103,1.1293 l 0,0.7879 c 0.7964,1.1488 3.0316,0.8839 4.4644,1.4078 1.0749,1.6562 3.1709,2.348 3.8339,4.284 0.562,1.6472 -0.902,2.7191 -1.546,3.6652 -0.664,0.9758 -1.107,1.9479 -1.773,2.8189 -0.6766,0.883 -1.3403,1.642 -2.175,2.479 -0.5813,0.585 -0.9747,1.318 -1.5457,1.917 -0.5629,0.593 -1.2586,1.131 -1.602,1.861 -1.0078,0.886 -1.9398,2.116 -2.8047,3.438 -0.8187,1.254 -1.8664,2.412 -2.6324,3.608 -0.6969,1.089 -1.8418,3.137 -1.8305,4.736 0.0078,1.422 0.8367,2.395 1.2004,3.608 -0.1187,0.258 -0.5199,0.238 -0.5715,0.563 2.2282,3.32 4.7215,6.619 6.9821,9.809 0.3457,0.489 0.5257,1.061 0.8578,1.579 0.1172,0.18 0.3672,0.382 0.516,0.621 0.0898,0.143 0.1488,0.41 0.2859,0.619 0.2,0.304 0.661,0.59 0.916,0.902 1.3239,1.62 2.6626,4.086 4.1766,5.75 0.547,0.599 1.468,1.252 1.603,1.747 0.06,0.22 -0.029,0.455 0,0.676 0.053,0.373 0.259,1.004 0.401,1.41 0.203,0.583 0.46,1.25 0.686,1.916 0.24,0.702 0.353,1.488 0.63,1.973 0.091,0.157 0.331,0.286 0.402,0.451 0.221,0.528 0.161,1.243 0.285,1.86 0.362,1.798 1.11,3.257 1.545,4.905 0.194,0.166 0.32,0.398 0.457,0.62 0.008,1.34 0.546,2.613 0.631,4.059 -1.303,0.333 -1.865,1.395 -2.118,2.761 -0.581,0.048 -0.939,0.299 -1.374,0.395 -0.502,0.112 -1.067,0.007 -1.658,0 -1.044,-0.011 -2.171,0.121 -3.149,0.17 -0.449,0.022 -0.9426,-0.083 -1.3726,0 -0.2289,0.043 -0.525,0.287 -0.802,0.395 -0.7203,0.278 -1.2883,0.259 -1.4879,0.902 0.1008,5.33 1.577,9.305 2.6903,13.641 -0.1422,0.217 -0.5247,0.2 -0.5723,0.507 0.1582,0.408 0.3461,0.787 0.4566,1.241 -0.2636,0.083 -0.4968,0.62 -0.6859,0.958 -3.0918,1.108 -6.184,2.215 -8.8711,3.721 -0.1805,0.009 -0.1918,-0.15 -0.4008,-0.113 -0.8598,0.365 -1.4277,1.281 -1.259,2.538 0.025,0.18 0.1071,0.433 0.2293,0.619 -0.1164,-0.455 -0.2679,-1.414 0.1707,-1.635 0.4723,0.084 0.3418,0.633 0.4008,0.959 0.0652,0.358 0.1684,0.811 0.2863,1.127 0.2731,0.723 0.8082,1.115 1.0879,1.578 -1.9468,0.591 -4.4437,1.493 -7.039,1.296 -0.5125,-0.038 -1.086,-0.248 -1.4305,-0.45 -0.5133,-0.302 -0.7492,-1.066 -1.4895,-1.015 -0.0898,1.406 0.559,2.779 0.9161,4.003 m 31.5346,-12.232 c -0.51,0.326 -1.447,0.588 -2.175,0.844 -0.874,0.308 -1.682,0.557 -2.288,0.846 -0.422,-0.92 -0.732,-1.949 -0.916,-3.101 1.094,-0.335 2.499,-0.825 2.174,-2.198 1.401,-0.844 3.405,-0.707 3.948,0.734 0.395,1.044 0,2.396 -0.743,2.875 m -2.633,-11.67 c 2.797,1.135 5.463,2.609 9.615,2.086 0.191,0.925 0.537,2.127 0.171,3.1 -0.795,0.489 -3.193,0.963 -2.975,2.254 0.119,0.705 1.1,0.503 0.973,1.466 -0.003,0.31 -0.483,0.321 -0.171,0.621 -0.349,-0.016 -0.721,0.361 -0.916,0.676 -0.95,0.138 -1.529,0.445 -2.405,0.733 -0.048,0.01 -0.053,-0.022 -0.056,-0.056 0.387,-2.066 -0.622,-3.939 -2.405,-4.172 -1.456,-0.19 -2.847,0.802 -4.292,0.958 0.699,-2.675 1.408,-5.341 2.461,-7.666 m -2.803,8.962 c 0.489,-0.155 0.894,-0.396 1.431,-0.507 -0.137,0.58 -0.939,0.505 -1.317,0.846 -0.207,0.053 -0.08,-0.222 -0.114,-0.339 m -0.059,7.217 c 0.173,0.113 0.21,0.656 0.116,0.845 -0.25,-0.072 -0.05,-0.59 -0.116,-0.845 m -3.948,1.916 c -0.134,-0.281 -0.259,-0.573 -0.344,-0.902 0.257,-0.086 0.356,-0.326 0.516,-0.507 0.283,-0.073 0.28,0.137 0.514,0.113 -0.222,0.438 -0.106,1.21 -0.686,1.296 m 2.233,-1.916 c 0.642,0.097 0.21,1.089 0.285,1.634 -0.336,0.003 -0.538,0.389 -0.916,0.169 0.122,-0.161 0.436,-0.134 0.515,-0.337 -0.012,-0.156 -0.213,-0.129 -0.286,-0.225 0.049,-0.499 0.354,-0.742 0.402,-1.241 m -2.977,-17.87 c 0.94,-0.023 1.908,0.157 2.519,0.281 -0.419,2.952 -0.913,6.317 -1.374,9.415 -0.207,-0.095 -0.357,-0.489 -0.287,-0.677 -0.323,-0.017 -0.595,0.015 -0.8,0.112 -0.032,0.088 -0.059,0.004 -0.058,-0.056 l 0.114,0 c -0.593,-3.018 -1.092,-6.241 -0.114,-9.075 m -6.2953,16.348 c 0.0848,0.16 0.0668,0.422 0.2301,0.507 0.9148,-0.055 1.2097,0.907 2.0586,0.732 0.5551,-0.113 0.575,-0.803 1.1449,-1.014 0.3497,0.324 0.7807,0.601 0.5147,1.24 -1.2499,0.468 -2.4045,1.024 -3.6045,1.523 -1.177,0.487 -2.361,1.08 -3.7782,1.296 -0.4121,-0.872 -0.8679,-1.7 -1.0867,-2.762 1.5387,-0.255 2.9945,-1.069 4.5211,-1.522 m -5.4941,1.014 c 0.9961,0.712 1.4808,2.22 1.6019,3.608 -1.8902,0.831 -3.5,-3.106 -1.6019,-3.608" /><path
       inkscape:connector-curvature="0"
       id="path20"
       style="fill:#f0f0f0;fill-opacity:1;fill-rule:nonzero;stroke:none"
       d="m 254.949,204.398 c 0.794,-1.162 2.079,-3.723 0.565,-4.792 -0.935,-0.658 -3.108,-0.558 -4.3,-0.211 -0.429,0.123 -0.868,0.417 -1.197,0.423 -0.724,0.011 -2.461,-1.017 -3.032,-1.41 -0.469,-0.324 -0.886,-0.682 -1.268,-0.987 -1.516,-1.216 -3.008,-2.63 -4.089,-4.228 5.374,1.045 9.075,-2.109 10.785,-5.851 0.95,-2.09 1.667,-4.428 0.915,-7.26 -0.915,-3.465 -2.949,-6.401 -4.862,-9.514 -1.346,-2.186 -2.585,-4.411 -3.947,-6.697 -0.747,-1.25 -1.692,-2.449 -2.185,-3.875 -0.172,-0.494 -0.136,-0.97 -0.282,-1.34 -0.265,-0.658 -0.875,-1.327 -0.987,-2.185 0.07,-0.399 0.798,-0.528 0.845,-1.057 0.047,-0.6 -0.869,-0.922 -1.128,-1.48 -0.176,-0.376 -0.021,-0.893 -0.14,-1.268 -0.106,-0.341 -0.494,-0.412 -0.916,-0.846 -0.189,-0.195 -0.241,-0.506 -0.422,-0.635 -0.159,-0.111 -0.459,-0.088 -0.636,-0.211 -0.234,-0.159 -0.293,-0.476 -0.423,-0.564 -0.464,-0.317 -1.109,-0.229 -1.197,-0.635 0,-0.704 -0.288,-1.121 -0.705,-1.409 -0.271,-0.012 -0.524,0 -0.705,0.07 -1.421,-1.145 -2.672,-2.455 -4.159,-3.524 0.247,-1.844 0.53,-3.653 0.845,-5.427 -0.299,-0.552 -0.227,-1.626 -0.351,-2.537 -0.148,-1.104 -0.441,-2.227 -0.704,-3.313 -0.259,-1.057 -0.771,-2.09 -0.917,-3.03 -0.289,-1.857 0.428,-4.97 0.563,-7.542 0.129,-2.514 0.688,-6.226 -1.058,-7.33 0.124,-1.316 -0.004,-2.35 -0.211,-3.313 -0.057,-0.317 0.166,-0.352 0.211,-0.563 -0.051,-3.495 0.018,-8.916 0.778,-12.6859 0.239,-1.218 0.592,-2.468 0.562,-3.3141 -0.022,-0.6988 -0.639,-1.0281 -0.987,-1.4789 0.158,-0.4242 0.488,-0.6992 0.776,-1.0582 0.592,-0.7461 1.029,-1.1629 1.904,-1.8328 0.686,-0.5269 1.368,-1.009 2.184,-1.4789 0.416,-0.241 0.735,-0.6 1.057,-0.7762 0.311,-0.1699 0.664,-0.1351 0.917,-0.282 0.181,-0.1039 0.521,-0.4871 0.846,-0.7059 0.528,-0.3562 1.179,-0.5621 0.916,-1.55 -0.106,-0.3859 -0.577,-0.505 -0.847,-0.8441 -2.549,0.0629 -5.702,0 -7.683,0.916 -1.321,0.611 -2.136,1.3899 -3.593,1.55 -1.745,0.1879 -3.219,-0.0301 -4.441,0.8449 -0.105,0.1121 -0.105,0.525 0,0.636 -0.774,0.7269 -1.567,1.4383 -1.833,2.6793 0.006,0.3687 0.276,0.4726 0.354,0.7738 -0.647,5.2738 -0.916,11.465 -1.693,16.915 -0.129,0.887 -0.123,2.173 -0.212,3.383 -0.029,0.382 -0.199,0.758 -0.211,1.128 -0.017,0.534 -0.082,1.18 -0.07,1.691 0.019,0.728 0.575,1.492 0.564,2.257 -0.011,0.505 -0.364,1.056 -0.423,1.62 -0.164,1.51 0.017,3.013 -0.282,4.37 -1.104,-2.021 -1.651,-5.375 -2.326,-8.176 -0.341,-1.404 -0.711,-2.274 -0.634,-3.877 0.064,-1.415 -0.053,-2.837 -0.141,-4.227 -0.024,-0.365 -0.176,-0.776 -0.142,-1.13 0.031,-0.281 0.283,-0.557 0.354,-0.846 0.07,-0.298 0.017,-0.669 0.07,-0.986 0.24,-1.545 0.41,-2.807 0.493,-4.722 0.077,-1.7719 0.224,-3.6539 0.142,-5.5691 -0.048,-1.0508 -0.3,-1.943 -0.494,-3.0289 -0.153,-0.834 0.146,-1.693 0.141,-2.5372 -0.011,-2.1789 -1.174,-3.8828 -1.622,-5.7097 0.066,-0.2992 -0.464,-0.0063 -0.423,-0.2821 0.659,-1.855 2.227,-3.4128 2.398,-5.991 -0.859,-0.8289 -2.579,-1.2859 -4.301,-1.057 -0.856,0.1129 -1.814,0.6332 -2.678,1.057 -0.734,0.359 -2.032,0.859 -2.255,1.409 -0.251,0.6231 0.106,1.5039 -0.071,2.186 -0.669,0.5 -0.57,1.0339 -0.634,1.9742 -0.046,0.616 -0.493,1.5136 -0.705,2.2539 -0.235,0.8179 -0.423,1.7281 -0.633,2.3269 -0.188,0.5211 -0.706,0.7739 -0.775,1.1981 -0.419,2.389 -0.242,4.8808 -0.353,7.4 -0.195,4.3759 0.404,8.9349 0.986,13.2509 0.059,0.422 0.029,0.839 0.07,1.409 0.053,0.775 0.599,1.463 0.564,2.397 -0.012,0.375 -0.188,0.757 -0.211,1.127 -0.229,3.354 -0.204,7.149 0,10.22 0.094,1.398 -0.529,3.002 -0.776,4.441 -0.468,2.748 -0.775,5.873 -0.564,9.232 0.119,1.909 0.676,3.689 0.495,5.498 -0.17,1.686 -0.317,3.354 0.21,4.934 -0.763,0.529 -1.867,0.716 -2.396,1.48 0.188,0.681 -0.071,1.292 -0.141,1.903 -0.17,1.48 0.3,2.884 0.211,4.299 -0.052,0.881 -0.37,1.75 -0.422,2.679 -0.077,1.322 -0.059,2.648 -0.07,4.088 -0.529,0.128 -1.258,0.182 -1.621,0.563 -0.201,0.212 -0.324,0.799 -0.494,1.128 -0.588,1.128 -1.721,1.809 -1.763,3.384 -0.023,0.728 0.278,1.497 0.283,2.325 0.006,1.375 -0.34,2.813 -0.212,4.158 0.147,1.492 0.969,2.685 0.775,4.229 -0.264,2.109 0.582,3.624 1.339,4.864 -0.074,0.241 -0.023,-0.195 -0.21,-0.071 0.352,0.399 0.252,1.122 0.493,1.621 0.135,0.282 0.582,0.599 0.775,0.916 0.324,0.547 0.393,1.193 0.775,1.41 0.5,0.288 1.081,0.1 1.762,0.282 0.17,0.047 0.012,0.119 0.211,0.211 0.235,0.112 0.66,0.042 0.847,0.142 0.745,0.399 1.251,1.133 1.972,1.48 0.907,0.434 1.845,0.463 2.75,1.127 0.41,1.139 0.858,2.245 1.692,2.96 -0.164,0.471 -0.299,0.969 -0.423,1.48 -0.353,0.118 -0.483,0.623 -0.705,1.058 -0.148,0.288 -0.464,0.522 -0.564,0.775 -0.129,0.318 -0.112,0.751 -0.282,1.128 -0.199,0.44 -0.541,0.752 -0.563,1.057 -0.053,0.705 0.487,1.123 0.916,1.621 -0.412,1.145 -0.107,2.508 -0.283,2.96 0.053,0.182 0.171,0.3 0.354,0.352 -0.03,0.241 -0.277,-0.187 -0.213,0.141 0.054,0.67 0.712,1.034 0.424,1.481 0.193,0.006 0.14,-0.118 0.281,0 0.007,0.318 -0.212,-0.029 -0.423,0.07 0.142,0.235 0.54,0.212 0.776,0.353 -0.047,0.094 -0.153,0.129 -0.282,0.141 0.147,0.234 0.494,0.205 0.776,0.14 -0.219,0.142 0.047,0.329 -0.282,0.353 0.063,0.194 0.216,-0.1 0.422,0 -0.03,0.346 0.035,0.534 0.634,0.493 -0.041,0.348 0.066,0.852 0.211,0.423 0.024,0.259 -0.011,0.458 -0.069,0.636 0.093,-0.048 0.13,-0.154 0.14,-0.283 0.294,-0.059 0.036,0.434 0.212,0.493 0.288,-0.176 -0.147,-0.264 0.071,-0.564 0.057,0.259 0.247,0.388 0.282,0 0.211,0.141 0.217,0.488 0.351,0.705 0.365,-0.382 0.165,0.259 0.565,0 0.029,0.176 0.199,0.176 0.14,-0.071 0.223,-0.017 0.17,0.253 0.283,0.353 0.316,-0.047 0.674,-0.153 0.705,0.212 0.135,-0.37 0.521,-0.099 0.634,0.14 0.005,-0.146 -0.072,-0.346 0.14,-0.563 0.095,0.563 0.524,0.152 0.847,0.633 0.305,-0.275 0.382,-0.434 0.704,-0.07 0.152,-0.246 0.388,-0.411 0.564,-0.634 0.088,0.124 0.422,0 0.422,0.211 0.047,0.135 0.113,-0.076 0,-0.07 0.124,-0.341 0.324,0.353 0.776,0.141 -0.216,-0.364 -0.053,-0.088 0.07,-0.353 0.177,-0.258 0.147,0.27 0.424,0.142 0.328,-0.006 -0.076,-0.1 0,-0.282 0.827,-0.053 1.292,-0.071 1.832,-0.353 0.199,-0.205 -0.277,-0.135 -0.212,-0.423 0.458,-0.346 0.065,-0.94 0.142,-1.48 0.064,-0.445 0.557,-0.716 0.845,-1.128 0.653,-0.933 1.374,-2.455 1.198,-4.158 -0.194,-1.885 0.317,-4.164 -0.07,-6.626 1.344,0.03 3.037,-0.499 4.229,-1.056 1.158,2.255 2.261,4.827 3.312,7.541 0.477,1.222 1.023,2.649 1.41,4.017 0.535,1.892 1.427,4.529 0.422,6.344 -0.351,0.628 -1.045,1.151 -1.479,1.762 -0.54,0.757 -1.516,1.886 -1.058,3.312 0.482,1.516 2.815,1.475 4.37,1.27 1.974,-0.259 3.813,-1.07 5.569,-1.832 4.857,-2.104 9.732,-5.763 13.109,-8.882 0.67,-0.852 1.397,-1.627 2.114,-2.679 m -8.386,-17.972 c 1.163,-0.622 1.75,-1.821 2.677,-2.678 -0.629,2.707 -1.95,4.722 -4.51,5.497 -0.06,-0.129 -0.118,-0.259 -0.14,-0.423 1.074,-0.381 1.614,-1.298 1.973,-2.396 m 1.268,-7.963 c 0.898,1.614 1.856,3.117 0.211,4.439 -0.165,-0.275 -0.141,-0.552 -0.281,-0.846 -0.406,-0.84 -1.358,-1.738 -1.481,-2.467 -0.047,-0.27 0.066,-0.535 0.072,-0.775 0.01,-1.357 -0.511,-2.326 -0.917,-3.523 1.11,0.492 1.65,1.826 2.396,3.172 m -2.325,2.959 c 0.686,0.846 1.838,2.349 0.986,3.666 -0.846,-0.588 -0.781,-2.086 -1.552,-2.75 0.284,-0.211 0.442,-0.545 0.566,-0.916 m -2.045,-3.665 c 0.781,0.852 2.161,2.707 0.564,3.665 -0.541,-0.917 -1.24,-1.674 -1.622,-2.749 l -0.315,-0.147 0.034,-0.347 -0.142,0 c -0.164,-0.422 -0.509,-0.663 -0.632,-1.127 0.28,-0.423 0.54,-0.863 0.844,-1.269 0.505,0.317 0.792,0.852 0.988,1.481 l 0.316,0.146 -0.035,0.347 z m 1.129,8.458 c -0.425,0.164 -0.841,0.334 -1.41,0.353 -0.458,-0.788 -0.957,-1.534 -1.41,-2.327 0.522,0.006 0.804,-0.223 1.339,-0.211 0.229,0.792 0.946,1.485 1.481,2.185 m -2.326,-3.384 c -1.352,0.423 -1.893,-0.546 -2.186,-1.409 0.252,-0.312 0.588,-0.541 0.916,-0.776 0.376,0.776 0.951,1.351 1.27,2.185 m -0.848,-11.629 c 0.03,0.552 0.124,0.94 0,1.339 -0.527,-0.012 -0.774,-0.305 -1.338,-0.282 0.312,-0.481 0.899,-0.699 1.338,-1.057 m -0.845,16.423 c 1.374,0.129 2.25,0.757 2.679,1.831 -1.205,-0.299 -1.985,-1.021 -2.679,-1.831 m 0.353,-13.533 c -0.241,0.346 -0.424,0.752 -0.776,0.987 -0.335,-0.376 -0.681,-0.729 -0.775,-1.34 0.546,-0.182 1.333,-0.028 1.551,0.353 m -0.353,6.132 c -0.252,0.293 -0.51,0.569 -0.917,0.704 -0.356,-0.769 -0.927,-1.327 -1.197,-2.184 0.429,-0.065 0.657,-0.33 1.058,-0.424 0.399,0.588 0.828,1.146 1.056,1.904 m -1.69,2.819 c 0.628,1.127 1.391,2.132 1.973,3.312 -1.816,-0.017 -2.375,-1.292 -2.96,-2.537 l -0.319,-0.035 0.035,-0.318 c -1.15,-1.502 -2.231,-3.083 -3.171,-4.792 0.495,0.141 1.175,0.393 1.692,0.282 0.745,1.227 1.568,2.379 2.396,3.524 l 0,0.141 0.318,0.094 -0.035,0.329 0.071,0 z m -0.918,-11.277 c 0.178,0.287 -0.023,0.705 -0.281,0.775 -0.135,-0.123 -0.252,-0.264 -0.282,-0.493 0.205,-0.077 0.264,-0.3 0.563,-0.282 m -0.492,3.172 c 0.299,0.523 0.705,0.939 0.845,1.621 -0.329,0.146 -0.593,0.346 -0.987,0.422 -0.247,-0.246 -0.47,-0.517 -0.563,-0.916 0.288,-0.323 0.376,-0.846 0.705,-1.127 m -2.256,-1.268 c 0.012,-1.141 1.304,-1.088 1.408,-0.072 -0.287,0.323 -0.463,0.758 -0.915,0.916 -0.158,-0.287 -0.335,-0.563 -0.493,-0.844 m -1.198,1.338 c 0.111,0.546 0.469,0.847 0.633,1.339 -0.493,-0.023 -0.605,-0.427 -0.916,-0.634 0.094,-0.229 0.053,-0.604 0.283,-0.705 m -9.373,13.25 c 0.622,1.398 1.643,2.397 1.76,4.3 -1.327,0.293 -2.566,0.676 -3.805,1.057 -0.423,-0.922 -1.029,-1.65 -1.481,-2.537 0.999,-0.317 1.168,-1.463 1.833,-2.115 0.546,-0.035 1.163,-0.428 1.693,-0.705" /><path
       inkscape:connector-curvature="0"
       id="path22"
       style="fill:#1b65ad;fill-opacity:1;fill-rule:nonzero;stroke:none"
       d="m 67.1133,105.492 c 0,0 -36,0 -36,-35.9998 l 0,-2.9551 c 0,0 0,-35.9992 36,-35.9992 l 267.3777,0 c 0,0 36,0 36,35.9992 l 0,2.9551 c 0,0 0,35.9998 -36,35.9998 l -267.3777,0 0,0" /><path
       inkscape:connector-curvature="0"
       id="path24"
       style="fill:#f0f0f0;fill-opacity:1;fill-rule:nonzero;stroke:none"
       d="m 334.752,92.116 -17.299,0 0,-22.773 -20.585,22.773 -15.181,0 0,-48.6859 17.298,0 0,22.4808 20.366,-22.4808 15.401,0 0,48.6859 0,0 z M 227.16,71.8238 l 0,11.825 0.876,0 c 2.191,0 3.651,-0.2179 4.453,-0.584 1.752,-0.8019 2.847,-2.9929 2.847,-5.4019 0,-2.0438 -0.803,-3.7949 -2.19,-4.816 -1.094,-0.8028 -2.19,-1.0231 -5.182,-1.0231 l -0.804,0 0,0 z m -17.299,-28.3937 17.299,0 0,20.6578 0.584,0 c 2.556,0 4.819,-1.4598 6.57,-4.2348 1.752,-2.7742 3.285,-5.6941 6.497,-13.4301 l 1.241,-2.9929 17.007,0 c -0.95,1.7519 -1.678,3.1379 -1.971,3.7961 -5.985,14.0136 -7.956,17.3726 -11.606,19.8527 4.161,2.409 6.131,5.841 6.131,10.8762 0,8.9789 -7.08,14.1609 -19.197,14.1609 l -22.555,0 0,-48.6859 0,0 z m -22.408,48.6859 -15.84,0 -9.27,-24.598 -9.709,24.598 -18.759,0 20.146,-48.6859 13.796,0 19.636,48.6859 0,0 z M 85.4082,72.7 l 0,11.023 0.8762,0 c 3.139,0 3.5043,0 4.307,-0.2921 2.2633,-0.7309 3.2852,-2.4829 3.2852,-5.2559 0,-2.4828 -0.8036,-4.0871 -2.4821,-4.891 -0.73,-0.3641 -0.73,-0.584 -4.891,-0.584 l -1.0953,0 0,0 z m 0,-21.0211 0,12.5543 1.8984,0 c 2.5547,0 4.3797,-0.2184 5.3286,-0.657 2.3359,-1.0211 3.5761,-2.9922 3.5761,-5.6211 0,-2.4082 -1.0211,-4.3801 -2.8461,-5.327 -1.0218,-0.584 -3.5039,-0.9492 -6.205,-0.9492 l -1.752,0 0,0 z m -17.2988,-8.2488 28.175,0 c 3.2121,0 7.8106,0.9488 9.9276,2.0437 4.671,2.4094 7.299,6.7153 7.299,12.0442 0,6.2781 -2.992,10.4371 -9.197,12.9929 3.649,2.7731 5.183,5.62 5.183,9.561 0,7.2269 -5.84,12.0441 -14.5259,12.0441 l -26.8617,0 0,-48.6859 0,0" /></g></svg>

